<svg width="40" height="40" viewBox="0 0 40 40" fill="none" xmlns="http://www.w3.org/2000/svg">
<path d="M29.5247 34.9478L35.7957 28.7739L34.4135 27.3895L29.5247 32.2098L27.4137 30.0569L26.0293 31.4524L29.5247 34.9478ZM6.11648 10.4444H29.2178V8.23627H6.11427L6.11648 10.4444ZM30.9136 40C28.4538 40 26.3664 39.1433 24.6514 37.4298C22.9364 35.7163 22.0797 33.6289 22.0811 31.1675C22.0811 28.7092 22.9379 26.6225 24.6514 24.9075C26.3649 23.1926 28.4523 22.3351 30.9136 22.3351C33.3734 22.3351 35.4609 23.1926 37.1758 24.9075C38.8908 26.6225 39.7475 28.7092 39.7461 31.1675C39.7461 33.6289 38.8893 35.7163 37.1758 37.4298C35.4594 39.1433 33.372 40 30.9136 40ZM0 37.0301V3.5661C0 2.57981 0.34741 1.73852 1.04223 1.04223C1.73705 0.34741 2.57834 0 3.5661 0H31.7637C32.75 0 33.5913 0.34741 34.2876 1.04223C34.9824 1.73705 35.3298 2.57834 35.3298 3.5661V16.6933C34.0167 16.262 32.6713 16.0405 31.2934 16.0287C29.917 16.0155 28.559 16.1928 27.2194 16.5609H6.11427V18.769H22.26C21.153 19.5359 20.177 20.4361 19.332 21.4695C18.4871 22.5029 17.7915 23.6408 17.2454 24.8832H6.11648V27.0914H16.5145C16.3555 27.6861 16.2319 28.2859 16.1435 28.891C16.0552 29.496 16.0103 30.1275 16.0088 30.7855C16.0088 31.7939 16.1141 32.7942 16.3246 33.7864C16.5366 34.7785 16.8531 35.7347 17.2741 36.6547L17.1968 36.732L14.6928 34.9059L11.7207 37.0279L8.74855 34.9059L5.77422 37.0279L2.8021 34.9059L0 37.0301Z" fill="#DED6CC"/>
</svg>
