<svg width="67" height="42" viewBox="0 0 67 42" fill="none" xmlns="http://www.w3.org/2000/svg">
<path d="M45.2648 0.530762H36.3202C35.4871 0.530762 34.6853 0.850056 34.071 1.42479L23.8351 11.0036C23.8247 11.0143 23.8143 11.0356 23.8039 11.0462C22.0753 12.7065 22.1066 15.3567 23.5852 17.0064C24.9076 18.4858 27.6879 18.8796 29.4268 17.2937C29.4372 17.2831 29.4581 17.2831 29.4685 17.2724L37.7884 9.48165C38.4652 8.85371 39.5273 8.89628 40.1417 9.58808C40.7665 10.2799 40.7144 11.3548 40.0376 11.9934L37.3198 14.5371L52.481 27.1174C52.7829 27.3728 53.0537 27.6495 53.3036 27.9369V7.34238L47.6181 1.53122C47.0038 0.892629 46.1499 0.530762 45.2648 0.530762ZM56.6461 7.36366V31.1937C56.6461 33.0775 58.1352 34.5995 59.9782 34.5995H66.6425V7.36366H56.6461ZM61.6443 31.1937C60.728 31.1937 59.9782 30.4274 59.9782 29.4908C59.9782 28.5542 60.728 27.7879 61.6443 27.7879C62.5606 27.7879 63.3104 28.5542 63.3104 29.4908C63.3104 30.4274 62.5606 31.1937 61.6443 31.1937ZM0 34.5888H6.66425C8.50733 34.5888 9.99637 33.0669 9.99637 31.183V7.36366H0V34.5888ZM4.99819 27.7879C5.91452 27.7879 6.66425 28.5542 6.66425 29.4908C6.66425 30.4274 5.91452 31.1937 4.99819 31.1937C4.08185 31.1937 3.33212 30.4274 3.33212 29.4908C3.33212 28.5435 4.08185 27.7879 4.99819 27.7879ZM50.388 29.7675L34.8415 16.868L31.7177 19.7949C28.625 22.6792 23.8872 22.4024 21.1278 19.3266C18.3267 16.1975 18.5454 11.3548 21.5859 8.50248L30.1037 0.530762H21.3777C20.4926 0.530762 19.6491 0.892629 19.0243 1.53122L13.3285 7.34238V31.1724H15.2341L24.6577 39.8891C27.5109 42.2626 31.7072 41.8155 34.0293 38.8993L34.0501 38.878L35.9141 40.5277C37.5697 41.9113 40.0167 41.6453 41.36 39.953L44.6296 35.8447L45.1919 36.313C46.6185 37.4944 48.7219 37.2816 49.8777 35.8128L50.867 34.5676C52.0332 33.0988 51.8145 30.9595 50.388 29.7675Z" fill="#DED6CC"/>
</svg>
