<svg width="40" height="40" viewBox="0 0 40 40" fill="none" xmlns="http://www.w3.org/2000/svg">
<path d="M36.7109 1.46661L38.5412 3.29694C40.4967 5.25242 40.4967 8.4203 38.5412 10.3758L34.1296 14.7874L25.2126 5.87818L29.6242 1.46661C31.5797 -0.48887 34.7476 -0.48887 36.7031 1.46661H36.7109ZM3.51462 27.584L23.4449 7.64593L32.3619 16.5629L12.4238 36.4932C11.8997 37.0173 11.2427 37.4005 10.5309 37.6039L2.39608 39.927C1.73904 40.1148 1.03507 39.9348 0.55011 39.4499C0.0651503 38.9649 -0.114754 38.261 0.0729721 37.6039L2.39608 29.4691C2.59945 28.7495 2.98273 28.1003 3.5068 27.5762L3.51462 27.584ZM19.5105 8.04485L8.09045 19.4649L1.25408 12.6207C-0.208617 11.158 -0.208617 8.78011 1.25408 7.30959L7.36301 1.20849C8.82571 -0.254213 11.2036 -0.254213 12.6741 1.20849L14.2228 2.75723C14.1994 2.7807 14.1681 2.80416 14.1446 2.82763L9.13859 7.83366C8.65363 8.31862 8.65363 9.11646 9.13859 9.60142C9.62355 10.0864 10.4214 10.0864 10.9063 9.60142L15.9124 4.59538C15.9358 4.57192 15.9593 4.54063 15.9828 4.51716L19.5105 8.04485ZM31.963 20.4974L35.4907 24.0251C35.4672 24.0485 35.4359 24.072 35.4124 24.0954L30.4064 29.1015C29.9214 29.5864 29.9214 30.3843 30.4064 30.8692C30.8914 31.3542 31.6892 31.3542 32.1742 30.8692L37.1802 25.8632C37.2037 25.8397 37.2271 25.8085 37.2506 25.785L38.7993 27.3415C40.262 28.8042 40.262 31.1821 38.7993 32.6526L32.6904 38.7537C31.2277 40.2164 28.8498 40.2164 27.3793 38.7537L20.543 31.9174L31.963 20.4974Z" fill="#DED6CC"/>
</svg>
