<svg width="17" height="17" viewBox="0 0 17 17" fill="none" xmlns="http://www.w3.org/2000/svg">
<path opacity="0.5" d="M8.50817 0.000976562C13.277 0.0275474 17.0925 3.90556 16.9982 8.679C16.9072 13.287 13.1641 17.0581 8.36532 17.0003C3.77649 16.9445 -0.105443 13.1861 0.00218579 8.27778C0.100513 3.81189 3.7373 0.0248903 8.50817 0.000976562ZM14.1693 13.4199C14.8416 12.6434 15.3393 11.7845 15.6415 10.8173C16.1657 9.14 16.1458 7.47069 15.5186 5.82463C14.344 2.74043 11.1225 0.513129 7.32824 1.08573C3.99507 1.58858 1.25918 4.3918 1.01469 7.94963C0.903077 9.57643 1.26582 11.0896 2.12885 12.4773C2.3348 12.8081 2.55936 13.1263 2.82976 13.4133C3.38385 11.4437 4.60829 10.0999 6.50308 9.33397C5.54174 8.63317 4.98698 7.70319 4.9345 6.51813C4.88201 5.32577 5.34508 4.33534 6.27055 3.59202C7.73948 2.41161 9.77978 2.5531 11.0773 3.90954C11.7184 4.57979 12.0712 5.38754 12.0705 6.31951C12.0699 7.58163 11.5258 8.57936 10.5033 9.32866C12.3894 10.0966 13.6152 11.4437 14.1693 13.4199ZM8.47628 16.0026C8.47628 16.0119 8.4776 16.0205 8.4776 16.0298C8.91742 15.9866 9.36189 15.9694 9.79639 15.8956C10.6129 15.7568 11.3896 15.4918 12.1131 15.0799C12.5157 14.8507 12.9043 14.6043 13.2584 14.306C13.287 14.2821 13.3109 14.2323 13.3083 14.1971C13.299 14.0901 13.2784 13.9839 13.2564 13.8782C13.0658 12.9509 12.6545 12.1379 11.9868 11.4623C10.775 10.2354 9.30741 9.78169 7.61724 10.0607C6.78013 10.1989 6.04201 10.5675 5.38959 11.1169C4.91058 11.5201 4.52259 11.9917 4.22362 12.5384C3.93794 13.0605 3.76719 13.6212 3.68747 14.2097C3.68348 14.2409 3.71205 14.2874 3.73929 14.3094C4.11333 14.6129 4.51262 14.8773 4.93782 15.1078C5.45869 15.3901 6.00348 15.6053 6.57218 15.7614C7.19403 15.9322 7.8305 16.0059 8.47628 16.0026ZM8.49421 8.95467C9.85684 8.9653 11.0707 7.87324 11.0866 6.39258C11.1019 4.9571 9.92992 3.78798 8.50484 3.78466C7.07976 3.78134 5.89983 4.94182 5.91445 6.38129C5.92907 7.90247 7.14886 8.95932 8.49421 8.95467Z" fill="white"/>
</svg>
