<svg width="40" height="40" viewBox="0 0 40 40" fill="none" xmlns="http://www.w3.org/2000/svg">
<path d="M0 20V11.6667H16.6667V20H0ZM16.6667 8.33333V0H0V8.33333H16.6667ZM16.6667 23.3333V31.6667C16.6667 36.2683 12.935 40 8.33333 40C3.73167 40 0 36.2683 0 31.6667V23.3333H16.6667ZM10.8333 31.6667C10.8333 30.2867 9.71333 29.1667 8.33333 29.1667C6.95333 29.1667 5.83333 30.2867 5.83333 31.6667C5.83333 33.0467 6.95333 34.1667 8.33333 34.1667C9.71333 34.1667 10.8333 33.0467 10.8333 31.6667ZM16.6667 8.33333V0H0V8.33333H16.6667ZM16.6667 23.3333V31.6667C16.6667 36.2683 12.935 40 8.33333 40C3.73167 40 0 36.2683 0 31.6667V23.3333H16.6667ZM10.8333 31.6667C10.8333 30.2867 9.71333 29.1667 8.33333 29.1667C6.95333 29.1667 5.83333 30.2867 5.83333 31.6667C5.83333 33.0467 6.95333 34.1667 8.33333 34.1667C9.71333 34.1667 10.8333 33.0467 10.8333 31.6667ZM20 31.6667C20 31.7067 20 31.7467 20 31.7867L36.6183 15.1683L24.8333 3.38333L20.0017 8.215V31.6667H20ZM16.4983 40H40V23.3333H33.1667L16.4983 40Z" fill="#DED6CC"/>
</svg>
