<svg width="36" height="36" viewBox="0 0 36 36" fill="none" xmlns="http://www.w3.org/2000/svg">
<g filter="url(#filter0_d_3442_269)">
<path d="M23.7678 18.4623C23.7692 18.4469 23.7706 18.4321 23.7713 18.4166C23.7713 18.4088 23.7713 18.4011 23.7721 18.394C23.7918 18.1053 23.7932 17.8159 23.7636 17.5272C23.7594 17.4892 23.7446 17.449 23.7453 17.4173C23.7481 17.3244 23.7333 17.2364 23.7192 17.1462C23.698 17.0082 23.667 16.873 23.6409 16.7364C23.6085 16.5653 23.5437 16.4026 23.5155 16.2294C23.5049 16.1646 23.4767 16.0935 23.4478 16.0308C23.3703 15.8632 23.3125 15.6871 23.2307 15.5217C23.1539 15.3653 23.0764 15.2097 22.9911 15.059C22.8198 14.7576 22.6196 14.4752 22.3933 14.2126C22.1121 13.8865 21.8034 13.5901 21.4523 13.3387C21.3692 13.2788 21.286 13.2183 21.2007 13.1605C20.8039 12.8936 20.381 12.6767 19.9312 12.5148C19.3751 12.3148 18.7999 12.2042 18.2107 12.1711C17.9513 12.1564 17.6912 12.1655 17.4325 12.193C17.1576 12.2218 16.8848 12.2648 16.6142 12.3261C16.2695 12.4042 15.934 12.5155 15.6118 12.6563C15.4201 12.7401 15.2228 12.8218 15.0494 12.945C15.0296 12.9591 15.0092 12.9725 14.9873 12.9845C14.8302 13.0676 14.6885 13.176 14.5383 13.2704C14.4615 13.3183 14.4044 13.3894 14.3226 13.4316C14.2825 13.4528 14.25 13.4901 14.2127 13.5183C14.1626 13.5563 14.1246 13.6098 14.0731 13.6457C14.0097 13.6901 13.9533 13.7415 13.8997 13.7957C13.7806 13.9182 13.6587 14.0372 13.5508 14.1717C13.4155 14.34 13.278 14.5069 13.1554 14.6851C12.9129 15.0351 12.7085 15.4055 12.5492 15.8005C12.392 16.1899 12.2743 16.5899 12.2052 17.0047C12.1644 17.2476 12.1333 17.4906 12.1242 17.737C12.115 17.9715 12.1023 18.206 12.1397 18.4391C12.1432 18.5511 12.158 18.6616 12.1728 18.7722C12.2405 19.2729 12.3667 19.7573 12.5626 20.2235C12.6958 20.5404 12.8537 20.8453 13.0412 21.1333C13.1913 21.3636 13.3401 21.5946 13.5262 21.7974C13.665 21.9495 13.8095 22.0967 13.9575 22.2403C14.0633 22.3431 14.1669 22.4502 14.2839 22.5389C14.4108 22.6347 14.5362 22.7325 14.6701 22.8213C14.7998 22.9072 14.9288 22.9924 15.0649 23.0684C15.4955 23.3093 15.9474 23.4994 16.4246 23.6254C16.832 23.7332 17.2457 23.8029 17.6672 23.8205C17.6813 23.8395 17.6961 23.8388 17.7116 23.8219C18.045 23.824 18.3777 23.8247 18.7097 23.779C19.0678 23.7297 19.4188 23.6536 19.7621 23.5424C20.3394 23.3557 20.8722 23.0818 21.3649 22.7276C21.5722 22.5783 21.7667 22.4128 21.9542 22.2403C22.0994 22.1065 22.2214 21.9516 22.3532 21.8051C22.5082 21.6326 22.6506 21.4516 22.7845 21.2643C22.953 21.0291 23.0912 20.7756 23.2173 20.5158C23.2751 20.396 23.3273 20.2735 23.3766 20.1503C23.4619 19.939 23.5338 19.7235 23.5923 19.5038C23.6839 19.1616 23.7432 18.8144 23.7692 18.4609L23.7678 18.4623Z" fill="#F8F9FB"/>
<path d="M26.9658 17.2715C26.9594 17.213 26.9362 17.1511 26.9376 17.1025C26.9425 16.9595 26.9192 16.8236 26.8974 16.6842C26.865 16.4715 26.817 16.2631 26.7769 16.0525C26.7261 15.7885 26.6274 15.5378 26.5837 15.2709C26.5675 15.1716 26.5238 15.061 26.4787 14.9639C26.3596 14.7054 26.2694 14.4343 26.1439 14.178C26.0255 13.9372 25.9064 13.697 25.7738 13.4646C25.5095 12.9999 25.2015 12.564 24.8519 12.1591C24.4177 11.6563 23.9419 11.1993 23.4006 10.8113C23.2716 10.719 23.144 10.6254 23.0129 10.5366C22.4011 10.1247 21.7491 9.7909 21.0555 9.54091C20.1984 9.23178 19.3102 9.06277 18.4017 9.01066C18.002 8.98813 17.6009 9.00221 17.202 9.04446C16.7777 9.08883 16.3569 9.15572 15.9403 9.25008C15.4088 9.3705 14.8915 9.54303 14.3945 9.75992C14.0992 9.88878 13.7947 10.0148 13.5275 10.205C13.4965 10.2268 13.4655 10.2479 13.4317 10.2655C13.1885 10.3937 12.9707 10.5606 12.7395 10.707C12.6218 10.7817 12.533 10.8908 12.4075 10.9563C12.3455 10.9887 12.2954 11.0465 12.2376 11.0894C12.1601 11.1479 12.1016 11.231 12.0227 11.2859C11.9247 11.3542 11.8373 11.4331 11.7555 11.5169C11.5715 11.7056 11.3833 11.8901 11.217 12.0971C11.0084 12.357 10.7962 12.6147 10.6066 12.8886C10.233 13.428 9.91793 13.9998 9.67123 14.6089C9.42876 15.2089 9.24761 15.8265 9.14047 16.4652C9.07773 16.8391 9.0298 17.2151 9.015 17.5947C9.0009 17.9559 8.98117 18.3172 9.03897 18.677C9.04461 18.8496 9.06716 19.02 9.08972 19.1911C9.19404 19.9629 9.38858 20.7107 9.69097 21.4297C9.89679 21.9184 10.1393 22.3881 10.4297 22.8331C10.6609 23.1881 10.8906 23.5444 11.1775 23.8577C11.3925 24.0915 11.6145 24.319 11.8429 24.5408C12.0064 24.6999 12.1657 24.8647 12.3462 25.0013C12.5421 25.1492 12.736 25.3006 12.9411 25.4365C13.1413 25.5689 13.3408 25.7006 13.5494 25.8175C14.2134 26.1886 14.9098 26.4822 15.6464 26.6773C16.2744 26.8435 16.9123 26.9505 17.5629 26.978C17.5847 27.0076 17.6073 27.0062 17.6313 26.9808C18.1451 26.9843 18.6582 26.985 19.17 26.9146C19.7219 26.8386 20.2632 26.721 20.7926 26.5498C21.6828 26.2625 22.5047 25.8393 23.2638 25.2936C23.5838 25.0633 23.8827 24.8084 24.1724 24.5415C24.3958 24.3352 24.5847 24.0965 24.787 23.8704C25.026 23.6049 25.2459 23.3254 25.4524 23.036C25.7118 22.6733 25.9247 22.2825 26.1192 21.8818C26.2087 21.6973 26.2884 21.5086 26.3652 21.3177C26.4963 20.9924 26.6077 20.66 26.6979 20.3213C26.8389 19.7939 26.9305 19.2573 26.9707 18.7129C26.9728 18.6897 26.9749 18.6665 26.9763 18.6425C26.9763 18.6306 26.977 18.6193 26.9777 18.6073C27.0081 18.1616 27.0109 17.7158 26.9644 17.2708L26.9658 17.2715ZM16.2518 18.6862C16.2561 18.6841 16.2603 18.682 16.2631 18.6799C16.2596 18.682 16.2561 18.6841 16.2518 18.6862ZM16.2779 18.651C16.2793 18.6369 16.2779 18.6214 16.2779 18.6073C16.2779 18.6214 16.28 18.6369 16.2779 18.651ZM16.2652 18.677C16.2652 18.677 16.2695 18.6735 16.2709 18.6714C16.2695 18.6735 16.2673 18.6749 16.2652 18.677ZM16.2723 18.6672C16.2723 18.6672 16.2744 18.6637 16.2751 18.6615C16.2751 18.6637 16.273 18.6651 16.2723 18.6672ZM16.2758 18.6587C16.2758 18.6587 16.2772 18.6538 16.2772 18.6517C16.2772 18.6545 16.2765 18.6566 16.2758 18.6587ZM22.1191 15.6209C22.043 16.1842 21.9655 16.7483 21.8823 17.3109C21.8203 17.7327 21.7477 18.1524 21.6807 18.5735C21.6779 18.5904 21.6779 18.608 21.6765 18.6256C21.6053 19.0397 21.5376 19.4552 21.4629 19.8685C21.3445 20.5199 21.2543 21.1769 21.0943 21.8205C21.0477 22.0085 20.9653 22.1839 20.8342 22.3311C20.7439 22.4318 20.629 22.5001 20.4951 22.5022C20.3408 22.5043 20.1878 22.4754 20.044 22.4099C19.8086 22.3022 19.5929 22.1635 19.3793 22.0191C18.7351 21.5825 18.0894 21.148 17.4466 20.71C17.2654 20.5868 17.0906 20.4544 16.9144 20.3234C16.8411 20.2692 16.7791 20.203 16.7269 20.1277C16.6275 19.9861 16.6205 19.8404 16.7121 19.6932C16.7523 19.6291 16.7988 19.5685 16.8425 19.5066C17.1992 19.1601 17.5509 18.8087 17.9139 18.4693C18.2917 18.1165 18.6843 17.7799 19.0403 17.4039C19.2517 17.1806 19.4808 16.975 19.6838 16.744C19.7148 16.7088 19.7458 16.6736 19.7621 16.6286C19.7987 16.5279 19.7395 16.4441 19.6338 16.4462C19.5696 16.4476 19.5139 16.4722 19.4618 16.5053C19.3257 16.5912 19.1897 16.6771 19.0544 16.7645C18.365 17.2123 17.6785 17.6644 16.9997 18.1285C16.7791 18.2792 16.5535 18.4242 16.3301 18.5714C16.3181 18.5792 16.3061 18.5869 16.2948 18.5946C16.2836 18.5904 16.2793 18.5975 16.2765 18.6066C16.2589 18.6228 16.2413 18.639 16.2236 18.6545L16.1362 18.7017C16.125 18.6953 16.1221 18.7045 16.1193 18.7122C16.108 18.7242 16.0961 18.7355 16.0848 18.7475L16.046 18.7721C16.0411 18.7756 16.0369 18.7798 16.0319 18.7834C16.0249 18.7883 16.0178 18.7932 16.0101 18.7989C15.9882 18.8129 15.9664 18.827 15.9445 18.8411C15.9445 18.8446 15.9459 18.8482 15.9466 18.8517C15.9487 18.8587 15.9509 18.8658 15.9523 18.8728C15.9509 18.8658 15.948 18.8587 15.9466 18.8517C15.9459 18.8482 15.9445 18.8446 15.9445 18.8411C15.8839 18.8552 15.843 18.8981 15.7993 18.9383C15.7563 18.951 15.7281 18.9932 15.6802 18.9974C15.6689 18.9974 15.652 18.9925 15.6464 18.9981C15.5512 19.0911 15.4271 19.1341 15.3108 19.1904C15.2996 19.1862 15.2953 19.1932 15.2925 19.2024C15.2869 19.2052 15.2819 19.208 15.2763 19.2101C15.1628 19.2355 15.0571 19.284 14.9429 19.3094C14.7561 19.3502 14.5778 19.3094 14.4002 19.27C13.8539 19.1488 13.321 18.9798 12.7973 18.7834C12.6958 18.7453 12.5978 18.6989 12.5097 18.6348C12.5048 18.6348 12.4984 18.6355 12.4921 18.6362C12.4984 18.6362 12.5041 18.6348 12.5097 18.6348C12.3673 18.4665 12.3758 18.344 12.5428 18.2003C12.7254 18.0433 12.9474 17.9588 13.1659 17.8693C13.419 17.7658 13.6657 17.6489 13.9152 17.5391C14.2148 17.4074 14.5179 17.2813 14.8188 17.1511C15.1847 16.9926 15.5505 16.8328 15.9163 16.6743C16.1729 16.5638 16.4302 16.4546 16.6867 16.3448C16.9722 16.2222 17.2563 16.0976 17.5424 15.9765C17.8307 15.8547 18.1233 15.7406 18.4094 15.6152C18.8373 15.4279 19.2743 15.2645 19.7043 15.0829C20.1378 14.8998 20.5776 14.7308 21.0209 14.5744C21.2416 14.497 21.4671 14.4209 21.7089 14.4266C22.0169 14.4336 22.1494 14.6195 22.1635 14.8779C22.1769 15.1265 22.1501 15.3744 22.117 15.6202L22.1191 15.6209Z" fill="url(#paint0_radial_3442_269)"/>
</g>
<defs>
<filter id="filter0_d_3442_269" x="0" y="0" width="36" height="36" filterUnits="userSpaceOnUse" color-interpolation-filters="sRGB">
<feFlood flood-opacity="0" result="BackgroundImageFix"/>
<feColorMatrix in="SourceAlpha" type="matrix" values="0 0 0 0 0 0 0 0 0 0 0 0 0 0 0 0 0 0 127 0" result="hardAlpha"/>
<feOffset/>
<feGaussianBlur stdDeviation="4.5"/>
<feComposite in2="hardAlpha" operator="out"/>
<feColorMatrix type="matrix" values="0 0 0 0 0.168627 0 0 0 0 0.615686 0 0 0 0 0.854902 0 0 0 0.33 0"/>
<feBlend mode="normal" in2="BackgroundImageFix" result="effect1_dropShadow_3442_269"/>
<feBlend mode="normal" in="SourceGraphic" in2="effect1_dropShadow_3442_269" result="shape"/>
</filter>
<radialGradient id="paint0_radial_3442_269" cx="0" cy="0" r="1" gradientUnits="userSpaceOnUse" gradientTransform="translate(24.3015 11.7007) rotate(133.64) scale(17.8243 17.8245)">
<stop stop-color="#33A5DF"/>
<stop offset="1" stop-color="#0D7EC4"/>
</radialGradient>
</defs>
</svg>
