<svg width="18" height="18" viewBox="0 0 18 18" fill="none" xmlns="http://www.w3.org/2000/svg">
<path d="M0.00235404 8.91785C-0.0138628 8.48215 0.0566451 8.03517 0.123628 7.58818C0.253362 6.72453 0.517061 5.90178 0.895688 5.11568C1.01555 4.8661 1.15304 4.62569 1.29406 4.38669C1.59019 3.88401 1.93568 3.4194 2.31995 2.98229C2.66402 2.591 3.04688 2.24061 3.45583 1.91771C3.67299 1.74569 3.8965 1.58001 4.13341 1.4383C4.37102 1.29588 4.60722 1.15135 4.85541 1.02445C5.20019 0.848901 5.55061 0.683927 5.91373 0.556318C6.2853 0.425889 6.66182 0.307446 7.04961 0.227779C7.30837 0.174198 7.56855 0.131191 7.82942 0.0888902C8.08466 0.0472941 8.34272 0.0324886 8.60078 0.0155681C8.77282 0.00428782 8.94556 -0.00487727 9.1169 0.00287795C9.41021 0.0169783 9.70282 0.0360139 9.99543 0.0670347C10.6857 0.140357 11.3541 0.301806 12.0084 0.528822C12.2834 0.624705 12.5513 0.738213 12.815 0.862297C13.1824 1.03432 13.5307 1.23948 13.8776 1.44887C13.9749 1.50739 14.0806 1.56943 14.166 1.635C14.2908 1.73159 14.4177 1.82888 14.5432 1.92617C14.7533 2.08974 14.95 2.26881 15.1524 2.44084C15.3441 2.60369 15.5204 2.78488 15.6748 2.98864C15.7566 3.0965 15.8581 3.19309 15.9449 3.29884C16.3588 3.80575 16.719 4.34791 17.0173 4.93167C17.1999 5.28911 17.3529 5.65854 17.4862 6.03644C17.63 6.44394 17.7463 6.86131 17.8232 7.28643C17.8676 7.53037 17.9092 7.77501 17.9339 8.02318C17.9558 8.24174 17.9727 8.46029 17.9868 8.67955C17.9974 8.8403 18.0016 9.00034 17.9995 9.16038C17.9966 9.38316 17.9656 9.60454 17.9508 9.82662C17.9191 10.3096 17.826 10.7805 17.7062 11.2472C17.4622 12.1927 17.0681 13.0711 16.54 13.8925C16.1917 14.4339 15.7982 14.9366 15.3399 15.3878C15.0529 15.6698 14.7568 15.942 14.429 16.176C14.2315 16.317 14.0334 16.4573 13.8254 16.5821C13.6033 16.7154 13.377 16.843 13.1471 16.9649C12.5598 17.2766 11.9457 17.5149 11.3055 17.6897C10.9268 17.7933 10.5412 17.861 10.1541 17.9217C9.56533 18.014 8.97306 18.0112 8.3808 17.9781C7.58547 17.9329 6.81834 17.7489 6.06673 17.4909C5.63452 17.3421 5.21711 17.1602 4.8124 16.9473C4.5762 16.8232 4.33929 16.6984 4.12001 16.544C4.07277 16.5109 4.02482 16.501 3.96912 16.5208C3.82458 16.5722 3.67934 16.6223 3.53338 16.6695C2.95804 16.8543 2.38199 17.0376 1.80594 17.2216C1.44353 17.3372 1.08042 17.4521 0.718008 17.5684C0.69192 17.5769 0.658077 17.5818 0.645385 17.5621C0.627053 17.5332 0.633399 17.4972 0.646796 17.462C0.696151 17.3294 0.745507 17.1976 0.787811 17.0629C0.851268 16.8627 0.9112 16.6618 0.977477 16.463C1.03952 16.2747 1.10369 16.0858 1.16996 15.8982C1.20099 15.8101 1.24611 15.7206 1.25387 15.6177C1.2588 15.5556 1.3138 15.4851 1.33777 15.4174C1.46187 15.0677 1.57609 14.7145 1.69736 14.3634C1.72345 14.2873 1.7023 14.233 1.65858 14.1709C1.22919 13.5597 0.876651 12.9076 0.609426 12.2103C0.452899 11.8014 0.325985 11.3826 0.23221 10.9532C0.156061 10.605 0.106706 10.2539 0.0580552 9.90135C0.0136353 9.58057 0.00235406 9.25837 0.00446929 8.91644L0.00235404 8.91785ZM4.02553 5.36032C3.94515 5.47383 3.92893 5.61201 3.89509 5.74033C3.83304 5.97369 3.7858 6.21198 3.78228 6.45592C3.77875 6.6632 3.76888 6.87118 3.80343 7.07775C3.90426 7.68407 4.14469 8.2368 4.44928 8.76416C4.61638 9.05321 4.81381 9.32183 5.00841 9.59326C5.24602 9.92532 5.49139 10.251 5.7572 10.5598C5.88905 10.7135 6.01949 10.8693 6.16051 11.0146C6.37344 11.2324 6.59483 11.4418 6.81341 11.6547C7.11307 11.9466 7.44375 12.2018 7.78007 12.4458C8.01698 12.6178 8.26446 12.7778 8.52393 12.9174C8.78692 13.0591 9.05132 13.1973 9.3256 13.3129C9.62244 13.4384 9.92844 13.5428 10.2288 13.6577C10.4453 13.7409 10.6667 13.8086 10.8881 13.8734C11.0502 13.9214 11.2209 13.951 11.3894 13.9827C11.7179 14.0433 12.0486 14.0631 12.3751 13.9975C12.9504 13.8819 13.4644 13.6373 13.8825 13.2135C14.0221 13.0718 14.1568 12.9266 14.2259 12.7334C14.3486 12.3901 14.4325 12.0418 14.4191 11.6724C14.4127 11.5003 14.3465 11.3868 14.1928 11.3114C13.7366 11.0858 13.2825 10.8567 12.8284 10.6261C12.5908 10.5056 12.344 10.4069 12.0951 10.3124C11.9309 10.2496 11.7673 10.2348 11.6171 10.3526C11.6044 10.354 11.5875 10.3448 11.5847 10.3674C11.5043 10.4484 11.4324 10.5359 11.3626 10.6268C11.1757 10.87 11.0002 11.1224 10.7971 11.3537C10.6582 11.5123 10.4932 11.5892 10.2824 11.5617C10.1943 11.5504 10.1132 11.5166 10.0314 11.4848C9.69859 11.3551 9.38271 11.1901 9.07177 11.0167C9.06543 11.0125 9.05838 11.0082 9.05203 11.004C9.04639 11.0012 9.04145 10.9984 9.03581 10.9955C9.01607 10.973 8.99069 10.9589 8.96319 10.949C8.55142 10.6698 8.1446 10.3836 7.78783 10.0332L7.75116 9.99724C7.67854 9.91404 7.60521 9.83085 7.53259 9.74766C7.2844 9.46283 7.05031 9.16743 6.83386 8.85722C6.82892 8.85087 6.82398 8.84453 6.81905 8.83748C6.7852 8.7839 6.74854 8.73172 6.71681 8.67744C6.64207 8.54842 6.55535 8.42857 6.49542 8.28968C6.43619 8.15361 6.48978 8.04856 6.56522 7.9562C6.70482 7.78559 6.85712 7.62484 7.0073 7.46339C7.15043 7.30899 7.26677 7.13697 7.34292 6.94168C7.39016 6.82112 7.37394 6.69422 7.32459 6.57436C7.1871 6.2423 7.05172 5.90883 6.9093 5.57888C6.74502 5.19817 6.61105 4.80406 6.41504 4.43675C6.34876 4.31266 6.26909 4.20197 6.12314 4.16672C6.0343 4.14557 5.93982 4.135 5.85027 4.13429C5.6874 4.13288 5.52453 4.11173 5.36024 4.14205C5.12898 4.18435 4.91181 4.25344 4.73695 4.41559C4.50287 4.63345 4.29134 4.87104 4.12988 5.14952C4.1052 5.16574 4.09463 5.19041 4.08969 5.21861C4.08546 5.22566 4.08193 5.23342 4.0777 5.24047C4.06219 5.24611 4.06642 5.26021 4.06431 5.27149C4.04739 5.27854 4.04809 5.29334 4.04739 5.30744C4.04457 5.31308 4.04245 5.31872 4.03963 5.32437L4.03681 5.3286L4.03963 5.33283C4.03399 5.34129 4.02835 5.35045 4.02271 5.35891L4.02553 5.36032Z" fill="#4BAF4F"/>
<path d="M8.97994 0.000146541C9.02577 0.000146541 9.07089 0.00085146 9.11672 0.00367154C9.41004 0.0177719 9.70264 0.0368074 9.99525 0.0678283C10.6855 0.14115 11.3539 0.3026 12.0082 0.529616C12.2832 0.625499 12.5512 0.739007 12.8149 0.86309C13.1822 1.03512 13.5305 1.24028 13.8774 1.44967C13.9747 1.50818 14.0805 1.57022 14.1658 1.63579C14.2906 1.73238 14.4175 1.82967 14.543 1.92696C14.7531 2.09053 14.9498 2.2696 15.1522 2.44163C15.344 2.60449 15.5202 2.78568 15.6747 2.98943C15.7564 3.0973 15.858 3.19389 15.9447 3.29964C16.3586 3.80655 16.7189 4.34871 17.0171 4.93246C17.1997 5.28991 17.3527 5.65934 17.486 6.03723C17.6298 6.44473 17.7462 6.8621 17.823 7.28723C17.8674 7.53117 17.909 7.77581 17.9337 8.02397C17.9556 8.24253 17.9725 8.46109 17.9866 8.68035C17.9972 8.84109 18.0014 9.00113 17.9993 9.16117C17.9965 9.38396 17.9655 9.60533 17.9506 9.82741C17.9189 10.3104 17.8258 10.7813 17.706 11.248C17.462 12.1935 17.0679 13.0719 16.5398 13.8933C16.1915 14.4347 15.798 14.9374 15.3397 15.3886C15.0528 15.6706 14.7566 15.9428 14.4288 16.1768C14.2314 16.3178 14.0332 16.4581 13.8252 16.5829C13.6031 16.7162 13.3768 16.8438 13.1469 16.9657C12.5596 17.2774 11.9455 17.5157 11.3053 17.6905C10.9267 17.7941 10.541 17.8618 10.1539 17.9224C9.79289 17.9788 9.42978 18 9.06666 18C8.83822 18 8.60907 17.9915 8.38062 17.9789C7.58529 17.9337 6.81817 17.7497 6.06656 17.4917C5.63434 17.3429 5.21694 17.161 4.81222 16.9481C4.57602 16.824 4.33911 16.6992 4.11984 16.5448C4.08881 16.523 4.05779 16.5117 4.02465 16.5117C4.00702 16.5117 3.98799 16.5152 3.96895 16.5223C3.82441 16.5737 3.67916 16.6238 3.53321 16.671C2.95787 16.8558 2.38182 17.0391 1.80577 17.2231C1.44336 17.3387 1.08024 17.4536 0.717834 17.5699C0.705143 17.5742 0.690336 17.5777 0.677645 17.5777C0.664953 17.5777 0.652262 17.5742 0.645211 17.5636C0.626879 17.5347 0.633225 17.4987 0.646621 17.4635C0.695977 17.3309 0.745332 17.1991 0.788342 17.0644C0.851799 16.8642 0.91173 16.6633 0.978008 16.4645C1.04005 16.2762 1.10422 16.0873 1.17049 15.8997C1.20152 15.8116 1.24664 15.7221 1.2544 15.6191C1.25933 15.5571 1.31433 15.4866 1.3383 15.4189C1.4624 15.0692 1.57662 14.716 1.69789 14.3649C1.72398 14.2888 1.70283 14.2345 1.65911 14.1724C1.22972 13.5612 0.877182 12.9091 0.609957 12.2118C0.45343 11.8029 0.326516 11.3841 0.23274 10.9547C0.156592 10.6065 0.107236 10.2554 0.058586 9.90285C0.0141661 9.58207 0.00288484 9.25987 0.00500008 8.91794C-0.0112167 8.48224 0.0592912 8.03525 0.126274 7.58827C0.255303 6.72462 0.519707 5.90187 0.898334 5.11577C1.0182 4.86619 1.15569 4.62578 1.2967 4.38678C1.59284 3.8841 1.93832 3.41949 2.32259 2.98238C2.66667 2.59109 3.04953 2.2407 3.45847 1.9178C3.67564 1.74577 3.89915 1.5801 4.13605 1.43839C4.37366 1.29597 4.60986 1.15144 4.85805 1.02454C5.20284 0.84899 5.55255 0.684015 5.91637 0.556407C6.28795 0.425978 6.66446 0.307535 7.05225 0.227868C7.31102 0.174286 7.57119 0.13128 7.83207 0.088979C8.08731 0.0473828 8.34537 0.0325774 8.60343 0.0156569C8.73034 0.00719666 8.85655 0.000146541 8.98276 0.000146541M11.9533 14.0392C12.0957 14.0392 12.2381 14.0265 12.3798 13.9983C12.9552 13.8827 13.4692 13.638 13.8873 13.2143C14.0269 13.0726 14.1616 12.9274 14.2307 12.7342C14.3533 12.3909 14.4372 12.0426 14.4238 11.6732C14.4175 11.5011 14.3512 11.3876 14.1975 11.3122C13.7413 11.0866 13.2873 10.8574 12.8332 10.6269C12.5956 10.5063 12.3488 10.4076 12.0999 10.3132C12.0238 10.2843 11.9476 10.2652 11.8729 10.2652C11.7869 10.2652 11.7022 10.2899 11.6219 10.3534H11.619C11.6148 10.3534 11.6099 10.3527 11.6049 10.3527C11.5972 10.3527 11.5908 10.3548 11.5894 10.3682C11.5091 10.4492 11.4371 10.5367 11.3673 10.6276C11.1805 10.8708 11.0049 11.1232 10.8019 11.3545C10.6813 11.492 10.541 11.5681 10.3689 11.5681C10.3429 11.5681 10.3154 11.566 10.2872 11.5625C10.199 11.5512 10.1179 11.5173 10.0361 11.4856C9.70335 11.3559 9.38747 11.1909 9.07653 11.0175C9.07019 11.0133 9.06314 11.009 9.05679 11.0048C9.05115 11.002 9.04622 10.9992 9.04058 10.9963C9.02083 10.9738 8.99545 10.9597 8.96795 10.9498C8.55619 10.6706 8.14936 10.3844 7.79259 10.034C7.7806 10.022 7.76791 10.01 7.75592 9.99803C7.6833 9.91483 7.60997 9.83164 7.53735 9.74845C7.28916 9.46362 7.05508 9.16822 6.83862 8.85801C6.83368 8.85167 6.82875 8.84532 6.82381 8.83827C6.78997 8.78469 6.7533 8.73252 6.72157 8.67823C6.64754 8.54921 6.56011 8.42936 6.50018 8.29047C6.44095 8.1544 6.49454 8.04935 6.56998 7.957C6.70959 7.78638 6.86188 7.62564 7.01207 7.46419C7.1552 7.30979 7.27153 7.13776 7.34768 6.94247C7.39492 6.82192 7.37871 6.69501 7.32935 6.57516C7.19186 6.24309 7.05649 5.90962 6.91406 5.57967C6.74978 5.19896 6.61581 4.80485 6.4198 4.43754C6.35352 4.31346 6.27385 4.20277 6.1279 4.16752C6.03906 4.14637 5.94458 4.13579 5.85503 4.13509C5.75985 4.13438 5.66396 4.12663 5.56807 4.12663C5.50038 4.12663 5.43269 4.13015 5.365 4.14284C5.13374 4.18514 4.91657 4.25423 4.74171 4.41639C4.50763 4.63424 4.2961 4.87183 4.13464 5.15031C4.10996 5.16653 4.09939 5.19121 4.09445 5.21941C4.09022 5.22646 4.0867 5.23421 4.08247 5.24126C4.06695 5.2469 4.07119 5.261 4.06907 5.27228C4.05215 5.27933 4.05285 5.29414 4.05215 5.30824C4.04933 5.31388 4.04721 5.31952 4.04439 5.32516L4.04157 5.32939L4.04439 5.33362C4.03875 5.34208 4.03311 5.35124 4.02747 5.3597C3.94709 5.47321 3.93087 5.6114 3.89703 5.73971C3.83498 5.97307 3.78774 6.21137 3.78422 6.45531C3.78069 6.66258 3.77082 6.87056 3.80537 7.07713C3.9062 7.68345 4.14663 8.23618 4.45122 8.76354C4.61833 9.0526 4.81575 9.32121 5.01035 9.59264C5.24796 9.92471 5.49333 10.2504 5.75914 10.5599C5.89099 10.7136 6.02143 10.8694 6.16245 11.0147C6.37538 11.2325 6.59677 11.4419 6.81535 11.6548C7.11501 11.9467 7.44569 12.2019 7.78201 12.4459C8.01892 12.6172 8.2664 12.7779 8.52587 12.9175C8.78886 13.0592 9.05327 13.1974 9.32754 13.313C9.62438 13.4385 9.93038 13.5429 10.2307 13.6578C10.4472 13.741 10.6686 13.8087 10.89 13.8735C11.0522 13.9215 11.2228 13.9511 11.3913 13.9828C11.5774 14.0173 11.7643 14.0385 11.9504 14.0385M5.40449 6.48421L5.44961 6.46588L5.47782 6.34885C5.51518 6.43627 5.55185 6.5244 5.58851 6.61323C5.52858 6.6795 5.46724 6.74859 5.40519 6.82051C5.40519 6.81698 5.40378 6.81416 5.40378 6.81064C5.39885 6.77327 5.40096 6.65624 5.40308 6.57093C5.40308 6.54202 5.40449 6.51312 5.40449 6.48421ZM12.0287 12.4134C12.1063 12.3246 12.1789 12.2365 12.2473 12.1497C12.3255 12.1892 12.4017 12.228 12.4764 12.2661C12.3728 12.3218 12.2374 12.3732 12.059 12.4085C12.0498 12.4106 12.0393 12.412 12.0287 12.4134Z" fill="#4BB854"/>
<path d="M7.79065 10.0346C8.14741 10.385 8.55354 10.6712 8.96601 10.9504C8.97165 10.9948 8.97236 11.0477 9.03863 10.997C9.04428 10.9998 9.04921 11.0026 9.05485 11.0054C9.0612 11.0096 9.06825 11.0139 9.07459 11.0188C9.38624 11.1922 9.70141 11.3572 10.0342 11.4869C10.116 11.5187 10.1971 11.5525 10.2852 11.5638C10.4953 11.5913 10.6603 11.5137 10.7999 11.3558C11.003 11.1246 11.1785 10.8722 11.3654 10.6289C11.4352 10.538 11.5071 10.4506 11.5875 10.3695C11.5981 10.3645 11.6093 10.3596 11.6199 10.3547C11.7708 10.2369 11.9337 10.2517 12.098 10.3145C12.3469 10.409 12.5936 10.507 12.8312 10.6282C13.2846 10.8588 13.7394 11.0879 14.1956 11.3135C14.3493 11.3896 14.4156 11.5025 14.4219 11.6745C14.4353 12.0439 14.3521 12.3929 14.2287 12.7355C14.1596 12.928 14.0249 13.0739 13.8853 13.2156C13.4672 13.6394 12.9539 13.884 12.3779 13.9996C12.0514 14.0652 11.7207 14.0455 11.3922 13.9848C11.2237 13.9538 11.053 13.9235 10.8909 13.8755C10.6702 13.8107 10.4481 13.7423 10.2316 13.6598C9.93056 13.5442 9.62526 13.4398 9.32842 13.3151C9.05415 13.1994 8.78974 13.0612 8.52675 12.9195C8.26728 12.7792 8.01909 12.6192 7.78289 12.4479C7.44586 12.2039 7.11518 11.948 6.81623 11.6568C6.59765 11.4439 6.37626 11.2345 6.16333 11.0167C6.02231 10.8722 5.89187 10.7156 5.76002 10.562C5.4935 10.2525 5.24884 9.92673 5.01123 9.59537C4.81663 9.32394 4.6192 9.05533 4.4521 8.76627C4.14751 8.23892 3.90708 7.68618 3.80625 7.07986C3.7717 6.87329 3.78228 6.66602 3.7851 6.45804C3.78933 6.2141 3.83657 5.9758 3.89791 5.74244C3.93175 5.61413 3.94797 5.47594 4.02835 5.36244C4.03399 5.35398 4.03963 5.34481 4.04527 5.33635L4.04245 5.33212L4.04527 5.32789C4.05373 5.32507 4.06008 5.32084 4.05303 5.31097C4.05444 5.29687 4.05303 5.28136 4.06995 5.27501C4.07418 5.26444 4.07911 5.25386 4.08335 5.24399C4.08758 5.23694 4.0911 5.22919 4.09533 5.22214C4.12424 5.20804 4.13059 5.18125 4.13552 5.15305C4.29698 4.87456 4.50851 4.63697 4.74259 4.41912C4.91745 4.25626 5.13462 4.18787 5.36588 4.14557C5.53017 4.11526 5.69304 4.13641 5.85591 4.13782C5.94546 4.13852 6.03994 4.14839 6.12878 4.17025C6.27402 4.2055 6.3544 4.31619 6.42068 4.44027C6.61669 4.80759 6.75066 5.20099 6.91494 5.5824C7.05736 5.91235 7.19203 6.24583 7.33023 6.57789C7.38029 6.69774 7.3958 6.82465 7.34856 6.9452C7.27241 7.1405 7.15608 7.31252 7.01294 7.46692C6.86276 7.62837 6.71047 7.78911 6.57086 7.95973C6.49542 8.05208 6.44183 8.15713 6.50106 8.2932C6.56169 8.43139 6.64842 8.55194 6.72245 8.68096C6.75418 8.73595 6.79014 8.78813 6.82469 8.841C6.82962 8.84735 6.83456 8.85369 6.8395 8.86074C7.05525 9.17095 7.29004 9.46635 7.53823 9.75118C7.61085 9.83437 7.68347 9.91757 7.7568 10.0008C7.7568 10.0247 7.76949 10.0367 7.79347 10.0367L7.79065 10.0346Z" fill="#FAF9FA"/>
</svg>
